<svg xmlns="http://www.w3.org/2000/svg" id="Layer_1" viewBox="0 0 836.8 420"><defs><style>      .st0 {        fill: #231f20;      }    </style></defs><g><path class="st0" d="M475.4,228.6v-30.5h19.6v4.1h-14.7v8.9h13.4v4.1h-13.4v13.4h-4.9Z"></path><path class="st0" d="M515.6,224.8h-.2c-1,2.4-2.8,4.4-6.5,4.4s-7.6-3.1-7.6-8.6v-14.5h4.8v13.8c0,3.6,1.6,5.4,4.7,5.4s4.9-1.3,4.9-3.9v-15.3h4.8v22.5h-4.8v-3.8h-.1Z"></path><path class="st0" d="M527.7,228.6v-22.5h4.8v3.8h.2c1-2.4,2.8-4.4,6.5-4.4s7.6,3.1,7.6,8.6v14.5h-4.8v-13.8c0-3.6-1.6-5.4-4.7-5.4s-4.9,1.3-4.9,3.9v15.3h-4.7Z"></path><path class="st0" d="M568.2,224.8h-.3c-1.3,2.7-3.5,4.4-6.8,4.4-5.3,0-8.7-4.1-8.7-11.8s3.4-11.8,8.7-11.8,5.5,1.7,6.8,4.4h.3v-13.6h4.8v32.3h-4.8v-3.9ZM568.2,221.1v-7.5c0-2.8-2.4-4.1-5.1-4.1s-5.6,2.4-5.6,6.1v3.7c0,3.7,2.1,6.1,5.6,6.1,2.8-.1,5.1-1.5,5.1-4.3Z"></path><path class="st0" d="M597.9,228.6c-2.7,0-4.1-1.5-4.3-3.8h-.2c-.9,2.7-3.2,4.3-6.8,4.3s-7.6-2.6-7.6-6.8,3.2-6.7,9.9-6.7h4.3v-1.7c0-3-1.6-4.6-4.8-4.6s-4.6,1.2-5.8,3.1l-2.8-2.3c1.3-2.4,4.3-4.5,9.1-4.5s9.2,2.8,9.2,8v11.3h2.8v3.8h-3ZM593.3,221.9v-3.3h-4.2c-3.5,0-5.2,1.1-5.2,3.1v.9c0,2,1.6,3.1,4.1,3.1s5.3-1.6,5.3-3.8Z"></path><path class="st0" d="M625.3,210.9l-3.7,2c-.8-2.1-2.4-3.4-5.1-3.4s-5.7,2.4-5.7,6v3.8c0,3.5,2.1,6,5.8,6s4.5-1.4,5.5-3.6l3.5,2.1c-1.4,3.1-4.2,5.2-8.7,5.4l-.4,2,.2.2c.6-.2,1.3-.3,1.9-.3,1.7,0,3.1,1,3.1,3s-2.5,3.8-5.2,3.8-4.1-1-4.8-1.8l1.8-2.1c.5.7,1.4,1.2,2.8,1.2s1.9-.4,1.9-1.3-.5-1.4-3.1-1.7h-1.1c0-.1.6-3.1.6-3.1-5.5-.8-8.6-5.2-8.6-11.6s4-11.8,10.7-11.8c4.5,0,7.2,2.1,8.6,5.2Z"></path><path class="st0" d="M650.4,228.6c-2.7,0-4.1-1.5-4.3-3.8h-.2c-.9,2.7-3.2,4.3-6.8,4.3s-7.6-2.6-7.6-6.8,3.2-6.7,9.9-6.7h4.3v-1.7c0-3-1.6-4.6-4.8-4.6s-4.6,1.2-5.8,3.1l-2.8-2.3c1.3-2.4,4.3-4.5,9.1-4.5s9.2,2.8,9.2,8v11.3h2.8v3.8h-3ZM641.2,201.3c-1.3-.7-2.3-1-3.2-1s-1.7.4-2.5,1.1l-1.8-2.3c.9-1.4,2.4-2.5,4.5-2.5s2.4.5,3.4,1c1.3.7,2.3,1,3.2,1s1.7-.4,2.5-1.1l1.8,2.3c-.9,1.4-2.4,2.5-4.5,2.5s-2.4-.6-3.4-1ZM645.7,221.9v-3.3h-4.2c-3.5,0-5.2,1.1-5.2,3.1v.9c0,2,1.6,3.1,4.1,3.1s5.3-1.6,5.3-3.8Z"></path><path class="st0" d="M657.5,217.4c0-7.2,4.1-11.8,10.7-11.8s10.7,4.6,10.7,11.8-4.1,11.8-10.7,11.8-10.7-4.6-10.7-11.8ZM673.9,219.1v-3.4c0-4.2-2.3-6.3-5.7-6.3s-5.7,2.1-5.7,6.3v3.4c0,4.2,2.3,6.3,5.7,6.3s5.7-2.1,5.7-6.3Z"></path><path class="st0" d="M475.1,258.5h4.8v3.8h.3c1.3-2.7,3.5-4.4,6.8-4.4,5.3,0,8.7,4.1,8.7,11.8s-3.4,11.8-8.7,11.8-5.5-1.7-6.8-4.4h-.3v12.6h-4.8v-31.2ZM490.6,271.6v-3.6c0-3.7-2.1-6.1-5.6-6.1s-5.1,1.4-5.1,4.1v7.5c0,2.8,2.4,4.1,5.1,4.1,3.5.1,5.6-2.3,5.6-6Z"></path><path class="st0" d="M519.3,281.1c-2.7,0-4.1-1.5-4.3-3.8h-.2c-.9,2.7-3.2,4.3-6.8,4.3s-7.6-2.6-7.6-6.8,3.2-6.7,9.9-6.7h4.3v-1.7c0-3-1.6-4.6-4.8-4.6s-4.6,1.2-5.8,3.1l-2.8-2.3c1.3-2.4,4.3-4.5,9.1-4.5s9.2,2.8,9.2,8v11.3h2.8v3.8h-3ZM514.6,274.3v-3.3h-4.2c-3.5,0-5.2,1.1-5.2,3.1v.9c0,2,1.6,3.1,4.1,3.1s5.3-1.5,5.3-3.8Z"></path><path class="st0" d="M527.4,277.2h6v-14.8h-6v-3.8h10.7v6h.3c.9-3.1,2.8-6,7.4-6h2.7v4.5h-4.5c-3.9,0-5.9,2.6-5.9,5.7v8.4h8.2v3.8h-18.9v-3.8Z"></path><path class="st0" d="M571.7,281.1c-2.7,0-4.1-1.5-4.3-3.8h-.2c-.9,2.7-3.2,4.3-6.8,4.3s-7.6-2.6-7.6-6.8,3.2-6.7,9.9-6.7h4.3v-1.7c0-3-1.6-4.6-4.8-4.6s-4.6,1.2-5.8,3.1l-2.8-2.3c1.3-2.4,4.3-4.5,9.1-4.5s9.2,2.8,9.2,8v11.3h2.8v3.8h-3ZM567.1,274.3v-3.3h-4.2c-3.5,0-5.2,1.1-5.2,3.1v.9c0,2,1.6,3.1,4.1,3.1s5.3-1.5,5.3-3.8Z"></path><path class="st0" d="M624.2,281.1c-2.7,0-4.1-1.5-4.3-3.8h-.2c-.9,2.7-3.2,4.3-6.8,4.3s-7.6-2.6-7.6-6.8,3.2-6.7,9.9-6.7h4.3v-1.7c0-3-1.6-4.6-4.8-4.6s-4.6,1.2-5.8,3.1l-2.8-2.3c1.3-2.4,4.3-4.5,9.1-4.5s9.2,2.8,9.2,8v11.3h2.8v3.8h-3ZM619.5,274.3v-3.3h-4.2c-3.5,0-5.2,1.1-5.2,3.1v.9c0,2,1.6,3.1,4.1,3.1s5.3-1.5,5.3-3.8Z"></path><path class="st0" d="M657.6,265.8c0-10.1,3.7-15.8,11.4-15.8s8.6,3.4,10,7.6l-4.4,1.5c-.9-2.8-2.2-5-5.6-5s-6.2,3.5-6.2,9.1v5.2c0,5.6,1.9,9.1,6.2,9.1s4.7-2.2,5.6-5l4.4,1.5c-1.4,4.1-4.1,7.6-10,7.6s-11.4-5.7-11.4-15.8Z"></path><path class="st0" d="M685.7,277.2h7.7v-14.8h-7.7v-3.8h12.4v18.7h7.2v3.8h-19.6v-3.9ZM692.5,251.8v-.9c0-1.4.9-2.6,3.2-2.6s3.3,1.1,3.3,2.6v.9c0,1.4-.9,2.6-3.2,2.6-2.4,0-3.3-1.1-3.3-2.6Z"></path><path class="st0" d="M710.1,269.8c0-7.2,4.2-11.8,10.6-11.8s10.3,4.5,10.3,11.2v1.8h-16.2v.7c0,3.5,2.4,6,6.2,6s5-1.4,6.2-3.4l3,2.6c-1.5,2.6-4.7,4.7-9.3,4.7-6.7,0-10.8-4.6-10.8-11.8ZM723.1,247.3l5.2,6.6-2.5,1.8-5.2-5.1-5.2,5.1-2.4-1.8,5.2-6.6h4.9ZM714.9,267.6v.3h11.3v-.4c0-3.5-2.2-5.9-5.5-5.9s-5.8,2.5-5.8,6Z"></path><path class="st0" d="M737.4,281.1v-22.5h4.8v3.8h.2c1-2.4,2.8-4.4,6.5-4.4s7.6,3.1,7.6,8.6v14.5h-4.8v-13.8c0-3.6-1.6-5.4-4.7-5.4s-4.9,1.3-4.9,3.9v15.3h-4.7Z"></path><path class="st0" d="M763.2,269.8c0-7.2,4-11.8,10.7-11.8s7.4,2.2,8.8,5.3l-3.7,2c-.8-2.1-2.4-3.4-5.1-3.4s-5.7,2.4-5.7,6v3.8c0,3.5,2.1,6,5.8,6s4.5-1.4,5.5-3.6l3.5,2.1c-1.4,3.1-4.4,5.4-9.1,5.4-6.8,0-10.7-4.6-10.7-11.8Z"></path><path class="st0" d="M790.5,277.2h7.7v-14.8h-7.7v-3.8h12.4v18.7h7.2v3.8h-19.7v-3.9h0ZM797.4,251.8v-.9c0-1.4.9-2.6,3.2-2.6s3.3,1.1,3.3,2.6v.9c0,1.4-.9,2.6-3.2,2.6-2.5,0-3.3-1.1-3.3-2.6Z"></path><path class="st0" d="M833.8,281.1c-2.7,0-4.1-1.5-4.3-3.8h-.2c-.9,2.7-3.2,4.3-6.8,4.3s-7.6-2.6-7.6-6.8,3.2-6.7,9.9-6.7h4.3v-1.7c0-3-1.6-4.6-4.8-4.6s-4.6,1.2-5.8,3.1l-2.8-2.3c1.3-2.4,4.3-4.5,9.1-4.5s9.2,2.8,9.2,8v11.3h2.8v3.8h-3ZM829.2,274.3v-3.3h-4.2c-3.5,0-5.2,1.1-5.2,3.1v.9c0,2,1.6,3.1,4.1,3.1s5.3-1.5,5.3-3.8Z"></path><path class="st0" d="M474.2,322.3c0-7.2,4.2-11.8,10.6-11.8s10.3,4.5,10.3,11.2v1.8h-16.2v.7c0,3.5,2.4,6,6.2,6s5-1.4,6.2-3.4l3,2.6c-1.5,2.6-4.7,4.7-9.3,4.7-6.7-.1-10.8-4.7-10.8-11.8ZM479,320v.3h11.3v-.4c0-3.5-2.2-5.9-5.5-5.9s-5.8,2.5-5.8,6Z"></path><path class="st0" d="M545.5,333.5c-2.7,0-4.1-1.5-4.3-3.8h-.2c-.9,2.7-3.2,4.3-6.8,4.3s-7.6-2.6-7.6-6.8,3.2-6.7,9.9-6.7h4.3v-1.7c0-3-1.6-4.6-4.8-4.6s-4.6,1.2-5.8,3.1l-2.8-2.3c1.3-2.4,4.3-4.5,9.1-4.5s9.2,2.8,9.2,8v11.3h2.8v3.8h-3ZM540.9,326.8v-3.3h-4.2c-3.5,0-5.2,1.1-5.2,3.1v.9c0,2,1.6,3.1,4.1,3.1,3-.1,5.3-1.6,5.3-3.8Z"></path><path class="st0" d="M592,307.1v26.4h-4.9v-26.4h-9.6v-4.1h24v4.1h-9.5Z"></path><path class="st0" d="M605.3,322.3c0-7.2,4.2-11.8,10.6-11.8s10.3,4.5,10.3,11.2v1.8h-16.2v.7c0,3.5,2.4,6,6.2,6s5-1.4,6.2-3.4l3,2.6c-1.5,2.6-4.7,4.7-9.3,4.7-6.8-.1-10.8-4.7-10.8-11.8ZM610.1,320v.3h11.3v-.4c0-3.5-2.2-5.9-5.5-5.9s-5.8,2.5-5.8,6Z"></path><path class="st0" d="M632.1,322.2c0-7.2,4-11.8,10.7-11.8s7.4,2.2,8.8,5.3l-3.7,2c-.8-2.1-2.4-3.4-5.1-3.4s-5.7,2.4-5.7,6v3.8c0,3.5,2.1,6,5.8,6s4.5-1.4,5.5-3.6l3.5,2.1c-1.4,3.1-4.4,5.4-9.1,5.4-6.7,0-10.7-4.6-10.7-11.8Z"></path><path class="st0" d="M658.8,333.5v-22.5h4.8v3.8h.2c1-2.4,2.8-4.4,6.5-4.4s7.6,3.1,7.6,8.6v14.5h-4.8v-13.8c0-3.6-1.6-5.4-4.7-5.4s-4.9,1.3-4.9,3.9v15.3h-4.7Z"></path><path class="st0" d="M683.7,322.2c0-7.2,4.1-11.8,10.7-11.8s10.7,4.6,10.7,11.8-4.1,11.8-10.7,11.8-10.7-4.6-10.7-11.8ZM700.1,323.9v-3.4c0-4.2-2.3-6.3-5.7-6.3s-5.7,2.1-5.7,6.3v3.4c0,4.2,2.3,6.3,5.7,6.3,3.4,0,5.7-2.1,5.7-6.3Z"></path><path class="st0" d="M710.8,329.6h7.5v-24.6h-7.5v-3.8h12.2v28.5h7.5v3.8h-19.7v-3.9Z"></path><path class="st0" d="M736.1,322.2c0-7.2,4.1-11.8,10.7-11.8s10.7,4.6,10.7,11.8-4.1,11.8-10.7,11.8-10.7-4.6-10.7-11.8ZM752.5,323.9v-3.4c0-4.2-2.3-6.3-5.7-6.3s-5.7,2.1-5.7,6.3v3.4c0,4.2,2.3,6.3,5.7,6.3,3.5,0,5.7-2.1,5.7-6.3Z"></path><path class="st0" d="M773,342.7c-7.8,0-10.5-2.1-10.5-5.4s1.4-3.7,3.9-4.4v-.4c-1.5-.6-2.5-1.6-2.5-3.3s1.7-3.2,4.1-3.8v-.2c-2.7-1.3-4.3-3.7-4.3-6.9,0-4.8,3.6-7.9,9.2-7.9s3,.3,4.2.7v-.7c0-1.7,1-3.1,3-3.1h4.1v3.8h-5.2v1c2,1.4,3.1,3.4,3.1,6.2,0,4.8-3.6,7.9-9.2,7.9s-1.9-.1-2.8-.3c-1,.3-2.4,1-2.4,2.2s1.5,1.6,3.5,1.6h5.1c6.1,0,8.6,2.5,8.6,6.2,0,4.7-4,6.8-11.9,6.8ZM776.1,333.7h-7.8c-1.1.5-1.7,1.4-1.7,2.5,0,1.7,1.3,3.1,4.6,3.1h3.5c3.6,0,5.5-1.1,5.5-3.1.2-1.5-.9-2.5-4.1-2.5ZM777.4,318.9v-1.2c0-2.4-1.4-4-4.5-4s-4.5,1.6-4.5,4v1.2c0,2.4,1.4,4,4.5,4s4.5-1.6,4.5-4Z"></path><path class="st0" d="M790.5,329.6h7.7v-14.8h-7.7v-3.8h12.4v18.7h7.2v3.8h-19.7v-3.9h0ZM797.4,304.3v-.9c0-1.4.9-2.6,3.2-2.6s3.3,1.1,3.3,2.6v.9c0,1.4-.9,2.6-3.2,2.6-2.5-.1-3.3-1.2-3.3-2.6Z"></path><path class="st0" d="M833.8,333.5c-2.7,0-4.1-1.5-4.3-3.8h-.2c-.9,2.7-3.2,4.3-6.8,4.3s-7.6-2.6-7.6-6.8,3.2-6.7,9.9-6.7h4.3v-1.7c0-3-1.6-4.6-4.8-4.6s-4.6,1.2-5.8,3.1l-2.8-2.3c1.3-2.4,4.3-4.5,9.1-4.5s9.2,2.8,9.2,8v11.3h2.8v3.8h-3ZM829.2,326.8v-3.3h-4.2c-3.5,0-5.2,1.1-5.2,3.1v.9c0,2,1.6,3.1,4.1,3.1,3-.1,5.3-1.6,5.3-3.8Z"></path></g><g><path class="st0" d="M70.2,185.3h53.5v23h-53.5v102.6h53.5v23H0v-23h44.1v-102.6H0v-23h34.6c5.3,0,9.5-4.3,9.5-9.5v-14.5c0-5.9,2.3-11.5,6.5-15.7l24.7-24.7c4.2-4.2,9.8-6.4,15.7-6.4h32.7v22.9h-53.5v47.9h0Z"></path><path class="st0" d="M196.7,114.5h56v23h-77.1v112.3h77.1v23h-56c-5.9,0-11.5-2.3-15.7-6.5l-25.1-25.1c-4.2-4.2-6.5-9.8-6.5-15.7v-63.7c0-5.9,2.3-11.5,6.5-15.7l25.1-25.1c4.2-4.2,9.9-6.5,15.7-6.5Z"></path><path class="st0" d="M320.2,227.6v-90.1h-43.4v-23h33.9c5.3,0,9.5-4.3,9.5-9.5v-27.3h26.1v36.8h56.3v23h-56.3v112.3h56.3v23h-40.1c-6.4,0-12.5-2.8-16.7-7.6l-20.1-23c-3.5-4-5.5-9.2-5.5-14.6Z"></path><rect class="st0" x="149.4" y="310.9" width="253.2" height="23"></rect></g></svg>